# Blender 3.6.23
# www.blender.org
mtllib untitled.mtl
o lod1
v 6.376321 13.796060 -13.148934
v 68.573105 13.796060 -13.148934
v 68.573105 13.796063 36.617069
v 92.026405 13.796063 36.617069
v 92.026405 13.796058 -36.617069
v 6.376321 13.796058 -36.617069
v 6.376321 -13.796062 -13.148932
v 68.573105 -13.796062 -13.148932
v 6.376321 -13.796063 -36.617069
v 92.026405 -13.796063 -36.617069
v 92.026405 -13.796058 36.617069
v 68.573105 -13.796058 36.617069
v -6.375838 13.796058 -36.617069
v -92.026405 13.796058 -36.617069
v -92.026405 13.796063 36.617069
v -68.573074 13.796063 36.617069
v -68.573074 13.796060 -13.148934
v -6.375838 13.796060 -13.148934
v -6.375838 -13.796063 -36.617069
v -92.026405 -13.796063 -36.617069
v -68.573074 -13.796058 36.617069
v -92.026405 -13.796058 36.617069
v -6.375838 -13.796062 -13.148932
v -68.573074 -13.796062 -13.148932
vn -0.0000 1.0000 -0.0000
vn -0.0000 -0.0000 1.0000
vn -1.0000 -0.0000 -0.0000
vn -0.0000 -0.0000 -1.0000
vn 1.0000 -0.0000 -0.0000
vn -0.0000 -1.0000 -0.0000
vt 2129.919922 1704.219971
vt 2933.070068 -0.000000
vt 2933.070068 2507.870117
vt 0.000000 0.000000
vt 2129.919922 -944.882019
vt 2129.919922 0.000000
vt -2507.870117 0.000000
vt -1704.219971 -944.882019
vt -1704.219971 0.000000
vt -2933.070068 0.000000
vt -0.000000 -944.882019
vt -0.000000 -0.000000
vt -0.000000 -0.000000
vt 2507.870117 -944.882019
vt 2507.870117 0.000000
vt 2129.919922 0.000000
vt 2933.070068 -944.882019
vt 2933.070068 0.000000
vt -1704.219971 0.000000
vt 0.000000 -944.882019
vt 0.000000 -0.000000
vt -2129.919922 1704.219971
vt 0.000000 2507.870117
vt -2933.070068 2507.870117
vt 2129.919922 -0.000000
vt -2933.070068 -944.882019
vt -2933.070068 -0.000000
vt 0.000000 -944.882019
vt -2507.870117 -944.882019
vt -0.000000 -944.882019
vt 0.000000 2507.870117
vt 0.000000 1704.219971
vt 0.000000 1704.219971
vt -2129.919922 -0.000000
s 0
usemtl FrontColor
f 2/1/1 4/2/1 5/3/1
f 1/4/2 8/5/2 2/6/2
f 6/7/3 7/8/3 1/9/3
f 5/10/4 9/11/4 6/12/4
f 4/13/5 10/14/5 5/15/5
f 3/16/2 11/17/2 4/18/2
f 2/19/3 12/20/3 3/21/3
f 8/22/6 9/23/6 10/24/6
f 15/2/1 16/25/1 17/1/1
f 20/26/4 13/12/4 19/11/4
f 24/22/6 22/27/6 20/24/6
f 21/5/2 15/18/2 22/17/2
f 24/8/5 16/21/5 21/20/5
f 23/28/2 17/6/2 24/5/2
f 19/29/5 18/9/5 23/8/5
f 22/30/3 14/15/3 20/14/3
f 6/31/1 1/32/1 2/1/1
f 2/1/1 3/25/1 4/2/1
f 5/3/1 6/31/1 2/1/1
f 1/4/2 7/28/2 8/5/2
f 6/7/3 9/29/3 7/8/3
f 5/10/4 10/26/4 9/11/4
f 4/13/5 11/30/5 10/14/5
f 3/16/2 12/5/2 11/17/2
f 2/19/3 8/8/3 12/20/3
f 8/22/6 7/33/6 9/23/6
f 10/24/6 11/27/6 8/22/6
f 11/27/6 12/34/6 8/22/6
f 18/32/1 13/31/1 17/1/1
f 13/31/1 14/3/1 17/1/1
f 14/3/1 15/2/1 17/1/1
f 20/26/4 14/10/4 13/12/4
f 24/22/6 21/34/6 22/27/6
f 20/24/6 19/23/6 24/22/6
f 19/23/6 23/33/6 24/22/6
f 21/5/2 16/16/2 15/18/2
f 24/8/5 17/19/5 16/21/5
f 23/28/2 18/4/2 17/6/2
f 19/29/5 13/7/5 18/9/5
f 22/30/3 15/13/3 14/15/3
